<?xml version="1.0" encoding="UTF-8"?>
<svg width="512px" height="470px" viewBox="0 0 512 470" version="1.1" xmlns="http://www.w3.org/2000/svg" xmlns:xlink="http://www.w3.org/1999/xlink">
    <!-- Generator: Sketch 63.1 (92452) - https://sketch.com -->
    <title>Shape</title>
    <desc>Created with Sketch.</desc>
    <g id="Page-1" stroke="none" stroke-width="1" fill="none" fill-rule="evenodd">
        <g id="heart" fill="#00AA60" fill-rule="nonzero">
            <path d="M378.667,0.333 C321.875,0.333 274.969,53.083 256,77.979 C237.031,53.083 190.125,0.333 133.333,0.333 C59.813,0.333 0,67.927 0,151 C0,196.323 17.99,238.562 49.479,267.469 C49.937,268.261 50.5,268.99 51.156,269.646 L248.469,466.552 C250.552,468.625 253.271,469.667 256,469.667 C258.729,469.667 261.458,468.625 263.542,466.542 L467.417,262.74 L469.521,260.698 C471.188,259.125 472.834,257.531 474.677,255.49 C475.448,254.73 476.083,253.875 476.573,252.948 C499.438,224.948 512,188.833 512,151 C512,67.927 452.188,0.333 378.667,0.333 Z M458.823,240.948 C458.531,241.292 458.26,241.656 458.021,242.031 C457.021,243.177 455.927,244.187 454.844,245.219 L255.99,443.927 L68.667,256.979 C68.063,255.791 67.219,254.708 66.188,253.802 C37.677,228.906 21.333,191.437 21.333,151 C21.333,79.687 71.573,21.667 133.333,21.667 C194.396,21.667 246.51,101.313 247.031,102.115 C250.969,108.198 261.031,108.198 264.969,102.115 C265.49,101.313 317.604,21.667 378.667,21.667 C440.427,21.667 490.667,79.688 490.667,151 C490.667,184.604 479.354,216.552 458.823,240.948 Z" id="Shape"></path>
        </g>
    </g>
</svg>